<svg width="76" height="66" viewBox="0 0 76 66" fill="none" xmlns="http://www.w3.org/2000/svg">
<path d="M17.3047 55.4348H53.1743" stroke="#1C1F35" stroke-width="2" stroke-linecap="round" stroke-linejoin="round"/>
<path d="M34.333 40.4762L49.855 31.1313" stroke="#1C1F35" stroke-width="2" stroke-linecap="round" stroke-linejoin="round"/>
<path d="M9.69531 37.8881L15.7105 43.9033" stroke="#1C1F35" stroke-width="2" stroke-linecap="round" stroke-linejoin="round"/>
<path d="M1 35.7143L7.01521 41.7295" stroke="#1C1F35" stroke-width="2" stroke-linecap="round" stroke-linejoin="round"/>
<path d="M15.7687 35.4431L25.2262 44.5152C26.4873 45.7263 28.0962 46.488 29.8137 46.6871C31.5313 46.8862 33.2657 46.5121 34.759 45.6203L72.7396 23.0042L68.0735 17.1446C66.8598 15.6259 65.1558 14.602 63.2695 14.2579C61.3832 13.9138 59.439 14.2723 57.7882 15.2684L46.6499 21.9762L31.5981 16.8362L27.4589 18.6609C27.1492 18.7968 26.8779 19.0105 26.6701 19.2821C26.4622 19.5537 26.3244 19.8746 26.2694 20.2151C26.2144 20.5556 26.244 20.9049 26.3554 21.2306C26.4669 21.5564 26.6565 21.8481 26.907 22.079L34.6085 29.1722L27.5843 33.2842L20.5602 30.2002L16.3457 32.0506C16.0391 32.1856 15.7701 32.3967 15.5632 32.6649C15.3563 32.9332 15.2179 33.25 15.1606 33.5868C15.1034 33.9236 15.129 34.2697 15.2351 34.5938C15.3413 34.918 15.5247 35.2098 15.7687 35.4431V35.4431Z" stroke="#1C1F35" stroke-width="2" stroke-linecap="round" stroke-linejoin="round"/>
<path d="M68.9352 18.4782C62.9052 23.2142 56.9528 23.8095 52.6309 18.4782L56.0268 16.2708C60.2468 13.5278 65.8664 14.4887 68.9352 18.4782Z" fill="#FFD550" stroke="#1C1F35" stroke-width="2"/>
</svg>
