<svg width="57" height="46" viewBox="0 0 57 46" fill="none" xmlns="http://www.w3.org/2000/svg">
<path d="M2.04785 45H54.4288" stroke="#141414" stroke-width="2" stroke-linecap="round" stroke-linejoin="round"/>
<path d="M32.4285 45V2.91304C32.4285 2.40567 32.2235 1.91908 31.8587 1.56032C31.4938 1.20155 30.9989 1 30.4829 1H7.13601C6.62001 1 6.12514 1.20155 5.76028 1.56032C5.39541 1.91908 5.19043 2.40567 5.19043 2.91304V45" stroke="#141414" stroke-width="2" stroke-linecap="round" stroke-linejoin="round"/>
<path d="M32.4287 13.5714H48.2859C49.9427 13.5714 51.2859 14.9146 51.2859 16.5714V43.9524H32.4287V13.5714Z" fill="#FFD550" stroke="#141414" stroke-width="2" stroke-linecap="round" stroke-linejoin="round"/>
<path d="M13.5713 10.4286H20.9046" stroke="#141414" stroke-width="2" stroke-linecap="round" stroke-linejoin="round"/>
<path d="M1 40.8095L0.999999 26.1428" stroke="#141414" stroke-width="2" stroke-linecap="round" stroke-linejoin="round"/>
<path d="M55.4766 30.3333L55.4766 15.6667" stroke="#141414" stroke-width="2" stroke-linecap="round" stroke-linejoin="round"/>
<path d="M35.5713 9.38095L42.9046 9.38095" stroke="#141414" stroke-width="2" stroke-linecap="round" stroke-linejoin="round"/>
<path d="M16.7139 26.1429H24.0472" stroke="#141414" stroke-width="2" stroke-linecap="round" stroke-linejoin="round"/>
<path d="M13.5713 35.5714H20.9046" stroke="#141414" stroke-width="2" stroke-linecap="round" stroke-linejoin="round"/>
<path d="M39.7617 35.5714H43.9522" stroke="#141414" stroke-width="2" stroke-linecap="round" stroke-linejoin="round"/>
<path d="M39.7617 26.1429H43.9522" stroke="#141414" stroke-width="2" stroke-linecap="round" stroke-linejoin="round"/>
</svg>
