<svg width="62" height="62" viewBox="0 0 62 62" fill="none" xmlns="http://www.w3.org/2000/svg">
<path d="M42.0713 28.7857V18.8214H47.6681C50.5026 18.8214 53.0574 20.5309 54.1387 23.151L56.1791 28.095C56.3149 28.4241 56.073 28.7857 55.7169 28.7857H42.0713Z" fill="#FFD550" stroke="#1C1F35" stroke-width="2"/>
<path d="M4.42871 35.4286H42.0716" stroke="#1C1F35" stroke-width="2" stroke-linecap="round" stroke-linejoin="round"/>
<path d="M45.3929 53.1429C49.0616 53.1429 52.0357 50.1688 52.0357 46.5C52.0357 42.8313 49.0616 39.8571 45.3929 39.8571C41.7241 39.8571 38.75 42.8313 38.75 46.5C38.75 50.1688 41.7241 53.1429 45.3929 53.1429Z" stroke="#1C1F35" stroke-width="2" stroke-linecap="round" stroke-linejoin="round"/>
<path d="M16.6067 53.1429C20.2755 53.1429 23.2496 50.1688 23.2496 46.5C23.2496 42.8313 20.2755 39.8571 16.6067 39.8571C12.938 39.8571 9.96387 42.8313 9.96387 46.5C9.96387 50.1688 12.938 53.1429 16.6067 53.1429Z" fill="#FFD550" stroke="#1C1F35" stroke-width="2" stroke-linecap="round" stroke-linejoin="round"/>
<path d="M38.75 45.3929H23.25" stroke="#1C1F35" stroke-width="2" stroke-linecap="round" stroke-linejoin="round"/>
<path d="M9.90907 45.3929H6.31085C5.81168 45.3929 5.33295 45.1887 4.97998 44.8254C4.62701 44.462 4.42871 43.9692 4.42871 43.4554V16.3304C4.42871 15.8165 4.62701 15.3237 4.97998 14.9603C5.33295 14.597 5.81168 14.3929 6.31085 14.3929H42.0716V40.3554" stroke="#1C1F35" stroke-width="2" stroke-linecap="round" stroke-linejoin="round"/>
<path d="M42.0713 28.7857H57.5713V43.5476C57.5713 44.037 57.3672 44.5063 57.0038 44.8524C56.6405 45.1984 56.1476 45.3928 55.6338 45.3928H51.8972" stroke="#1C1F35" stroke-width="2" stroke-linecap="round" stroke-linejoin="round"/>
<path d="M8.85742 28.0946L8.85742 18.8214" stroke="#1C1F35" stroke-width="2" stroke-linecap="round" stroke-linejoin="round"/>
<path d="M28.7854 31L38.0586 31" stroke="#1C1F35" stroke-width="2" stroke-linecap="round" stroke-linejoin="round"/>
<path d="M28.786 49.7144L32.1074 49.7144" stroke="#1C1F35" stroke-width="2" stroke-linecap="round" stroke-linejoin="round"/>
</svg>
