<svg width="24" height="23" viewBox="0 0 24 23" fill="none" xmlns="http://www.w3.org/2000/svg">
<path fill-rule="evenodd" clip-rule="evenodd" d="M23.3184 11.5647C23.3184 5.61625 18.169 0.793091 11.8184 0.793091C5.46769 0.793091 0.318359 5.61625 0.318359 11.5647C0.318359 16.9408 4.52305 21.3971 10.0215 22.2059L10.0215 14.6793L7.10079 14.6793L7.10079 11.5647L10.0215 11.5647L10.0215 9.19155C10.0215 6.49241 11.7388 5.00025 14.3653 5.00025C15.6236 5.00025 16.94 5.21088 16.94 5.21088L16.94 7.86193L15.4891 7.86193C14.0614 7.86193 13.6147 8.69192 13.6147 9.54499L13.6147 11.5647L16.8039 11.5647L16.2946 14.6793L13.6152 14.6793L13.6152 22.2069C19.1137 21.3985 23.3184 16.9423 23.3184 11.5647Z" fill="#1C1F35"/>
</svg>
