<svg width="24" height="23" viewBox="0 0 24 23" fill="none" xmlns="http://www.w3.org/2000/svg">
<path d="M16.7084 2.57341C17.9372 2.57694 19.1146 3.04823 19.9835 3.88435C20.8524 4.72046 21.3422 5.85347 21.3459 7.03591L21.3459 15.96C21.3422 17.1424 20.8524 18.2754 19.9835 19.1115C19.1146 19.9476 17.9372 20.4189 16.7084 20.4225L7.43451 20.4225C6.20571 20.4189 5.02829 19.9476 4.15939 19.1115C3.2905 18.2754 2.80073 17.1424 2.79706 15.96L2.79706 7.03591C2.80073 5.85347 3.2905 4.72046 4.15939 3.88435C5.02829 3.04823 6.20571 2.57694 7.43451 2.57341L16.7084 2.57341ZM16.7084 0.788696L7.43451 0.788696C3.86376 0.788696 0.942383 3.59987 0.942383 7.03591L0.942383 15.96C0.942383 19.396 3.86376 22.2072 7.43451 22.2072L16.7084 22.2072C20.2792 22.2072 23.2005 19.396 23.2005 15.96L23.2005 7.03591C23.2005 3.59987 20.2792 0.788696 16.7084 0.788696Z" fill="#1C1F35"/>
<path d="M18.0995 7.03632C17.8243 7.03632 17.5554 6.95781 17.3266 6.81071C17.0978 6.66362 16.9195 6.45455 16.8142 6.20994C16.7089 5.96534 16.6814 5.69618 16.7351 5.43651C16.7887 5.17683 16.9212 4.93831 17.1158 4.75109C17.3103 4.56388 17.5582 4.43638 17.8281 4.38473C18.0979 4.33308 18.3776 4.35959 18.6318 4.46091C18.886 4.56223 19.1033 4.73381 19.2561 4.95395C19.409 5.17409 19.4906 5.4329 19.4906 5.69766C19.491 5.87356 19.4553 6.04781 19.3855 6.21039C19.3157 6.37297 19.2133 6.5207 19.084 6.64508C18.9548 6.76946 18.8012 6.86805 18.6323 6.93519C18.4633 7.00233 18.2823 7.0367 18.0995 7.03632ZM12.0714 7.92844C12.8051 7.92844 13.5224 8.13781 14.1325 8.53007C14.7425 8.92234 15.218 9.47988 15.4988 10.1322C15.7796 10.7845 15.8531 11.5023 15.7099 12.1948C15.5668 12.8873 15.2135 13.5234 14.6946 14.0226C14.1758 14.5219 13.5148 14.8619 12.7951 14.9996C12.0755 15.1374 11.3296 15.0667 10.6517 14.7965C9.97379 14.5263 9.39439 14.0687 8.98674 13.4817C8.5791 12.8946 8.36152 12.2044 8.36152 11.4983C8.36257 10.5519 8.75377 9.64442 9.44927 8.97515C10.1448 8.30589 11.0878 7.92945 12.0714 7.92844ZM12.0714 6.14372C10.9708 6.14372 9.89497 6.45776 8.97988 7.04614C8.0648 7.63451 7.35158 8.47079 6.93041 9.44922C6.50925 10.4276 6.39905 11.5043 6.61376 12.543C6.82847 13.5817 7.35844 14.5358 8.13665 15.2846C8.91487 16.0335 9.90637 16.5435 10.9858 16.7501C12.0652 16.9567 13.184 16.8506 14.2008 16.4454C15.2176 16.0401 16.0867 15.3538 16.6981 14.4732C17.3096 13.5926 17.6359 12.5574 17.6359 11.4983C17.6359 10.0782 17.0496 8.71624 16.0061 7.71205C14.9625 6.70787 13.5472 6.14372 12.0714 6.14372Z" fill="#1C1F35"/>
</svg>
