<svg width="23" height="23" viewBox="0 0 23 23" fill="none" xmlns="http://www.w3.org/2000/svg">
<path d="M20.7965 0.457153L2.64459 0.457153C1.65273 0.457153 0.786133 1.17082 0.786133 2.15103L0.786133 20.3433C0.786133 21.3288 1.65273 22.2071 2.64459 22.2071L20.7912 22.2071C21.7884 22.2071 22.5361 21.323 22.5361 20.3433L22.5361 2.15103C22.5419 1.17082 21.7884 0.457153 20.7965 0.457153ZM7.52812 18.5868L4.41225 18.5868L4.41225 8.89884L7.52812 8.89884L7.52812 18.5868ZM6.07797 7.42587H6.05563C5.05844 7.42587 4.41274 6.68356 4.41274 5.75433C4.41274 4.80811 5.07543 4.08327 6.09496 4.08327C7.11449 4.08327 7.73834 4.80277 7.76067 5.75433C7.76019 6.68356 7.11449 7.42587 6.07797 7.42587ZM18.9158 18.5868L15.7999 18.5868L15.7999 13.2896C15.7999 12.0205 15.3464 11.1535 14.2191 11.1535C13.3579 11.1535 12.8481 11.736 12.6214 12.3036C12.5364 12.5075 12.5136 12.7852 12.5136 13.0687L12.5136 18.5868L9.39774 18.5868L9.39774 8.89884L12.5136 8.89884L12.5136 10.247C12.9671 9.60135 13.6754 8.67212 15.3236 8.67212C17.369 8.67212 18.9162 10.0203 18.9162 12.9269L18.9158 18.5868Z" fill="#1C1F35"/>
</svg>
