<svg width="23" height="18" viewBox="0 0 23 18" fill="none" xmlns="http://www.w3.org/2000/svg">
<path d="M22.3177 2.07631C21.5123 2.42602 20.6602 2.65641 19.7882 2.76021C20.7046 2.22399 21.3937 1.3721 21.7264 0.364324C20.86 0.870585 19.9137 1.2258 18.928 1.41476C18.5129 0.980071 18.0137 0.634265 17.4608 0.39836C16.9078 0.162455 16.3126 0.0413776 15.7114 0.042488C13.2771 0.042488 11.3071 1.98244 11.3071 4.37386C11.3054 4.7065 11.3435 5.03814 11.4207 5.36172C9.67517 5.27994 7.96591 4.83497 6.40231 4.05527C4.8387 3.27556 3.45518 2.1783 2.34026 0.833667C1.94912 1.49259 1.74226 2.2444 1.74131 3.01053C1.74131 4.51243 2.52545 5.84 3.70949 6.61777C3.00798 6.60113 2.32084 6.41559 1.70642 6.07691V6.13054C1.70642 8.23142 3.22728 9.97916 5.24019 10.377C4.86167 10.4778 4.47161 10.5289 4.07986 10.529C3.80189 10.5295 3.52455 10.5025 3.25188 10.4485C3.81147 12.1694 5.44014 13.421 7.36941 13.4568C5.80174 14.6641 3.87706 15.3166 1.89787 15.3118C1.54655 15.3113 1.19557 15.2904 0.84668 15.2492C2.86012 16.534 5.20058 17.2136 7.58948 17.2071C15.702 17.2071 20.1339 10.605 20.1339 4.87896C20.1339 4.69122 20.129 4.50349 20.1201 4.32022C20.9803 3.70876 21.7245 2.94889 22.3177 2.07631Z" fill="#1C1F35"/>
</svg>
